<?xml version="1.0" encoding="iso-8859-1"?>
<!-- Uploaded to: SVG Repo, www.svgrepo.com, Generator: SVG Repo Mixer Tools -->
<svg fill="#000000" height="800px" width="800px" version="1.1" id="Layer_1" xmlns="http://www.w3.org/2000/svg" xmlns:xlink="http://www.w3.org/1999/xlink" 
	 viewBox="0 0 512 512" xml:space="preserve">
<g>
	<g>
		<path d="M437.019,74.981C388.668,26.629,324.381,0,256,0S123.332,26.629,74.981,74.981C26.629,123.332,0,187.619,0,256
			s26.629,132.668,74.981,181.019C123.332,485.371,187.619,512,256,512s132.668-26.629,181.019-74.981
			C485.371,388.668,512,324.381,512,256S485.371,123.332,437.019,74.981z M94.001,158.232c7.192-10.494,18.038-17.559,30.544-19.895
			c25.815-4.812,50.739,12.257,55.563,38.074c2.336,12.506-0.338,25.173-7.529,35.666c-7.192,10.494-18.039,17.559-30.544,19.895
			c-2.949,0.551-5.908,0.823-8.844,0.823c-9.515,0-18.802-2.858-26.822-8.353c-10.494-7.192-17.559-18.038-19.895-30.544
			C84.137,181.393,86.81,168.725,94.001,158.232z M178.208,342.68c-4.231,11.999-12.879,21.631-24.353,27.124
			c-6.52,3.12-13.508,4.691-20.529,4.691c-5.336,0-10.69-0.907-15.871-2.734c-11.997-4.231-21.63-12.879-27.123-24.353
			c-5.494-11.472-6.189-24.4-1.96-36.397c4.231-11.999,12.879-21.631,24.353-27.124c11.475-5.489,24.401-6.188,36.4-1.959
			c11.997,4.231,21.63,12.879,27.123,24.353C181.741,317.757,182.436,330.683,178.208,342.68z M303.485,401.363
			c-0.981,12.685-6.842,24.228-16.503,32.504c-8.708,7.457-19.563,11.457-30.907,11.457c-1.243,0-2.493-0.048-3.746-0.144
			c-12.685-0.981-24.228-6.842-32.504-16.503c-8.274-9.664-12.292-21.97-11.312-34.653c0.981-12.685,6.842-24.228,16.503-32.504
			c9.661-8.274,21.971-12.296,34.652-11.313c12.684,0.981,24.228,6.842,32.504,16.503
			C300.448,376.372,304.465,388.678,303.485,401.363z M303.486,259.67c-0.981,12.685-6.842,24.228-16.503,32.504
			c-8.708,7.457-19.563,11.457-30.907,11.457c-1.243,0-2.493-0.048-3.746-0.144c-12.685-0.981-24.228-6.842-32.504-16.503
			c-8.275-9.663-12.293-21.968-11.313-34.652c0.981-12.684,6.842-24.228,16.503-32.504c9.661-8.274,21.971-12.289,34.652-11.313
			c12.685,0.981,24.228,6.842,32.504,16.503C300.449,234.681,304.466,246.986,303.486,259.67z M303.486,117.977
			c-0.981,12.685-6.842,24.228-16.503,32.504c-8.708,7.457-19.563,11.457-30.907,11.457c-1.243,0-2.493-0.048-3.746-0.144
			c-12.685-0.981-24.228-6.842-32.504-16.503c-8.275-9.662-12.293-21.968-11.313-34.653c0.981-12.685,6.842-24.228,16.503-32.504
			c9.661-8.274,21.971-12.293,34.652-11.313c12.685,0.981,24.228,6.842,32.504,16.503
			C300.449,92.988,304.466,105.293,303.486,117.977z M417.998,353.768c-7.192,10.494-18.038,17.559-30.544,19.895
			c-2.941,0.549-5.873,0.814-8.764,0.814c-22.472,0-42.526-16.014-46.799-38.887c-2.336-12.506,0.338-25.173,7.529-35.666
			c7.192-10.494,18.039-17.559,30.544-19.895c12.504-2.337,25.171,0.338,35.666,7.529c10.495,7.192,17.559,18.038,19.895,30.544
			C427.862,330.607,425.189,343.275,417.998,353.768z M423.628,200.989c-4.231,11.999-12.879,21.631-24.353,27.124
			c-6.52,3.12-13.508,4.691-20.529,4.691c-5.336,0-10.69-0.907-15.871-2.734c-11.997-4.231-21.63-12.879-27.123-24.353
			c-5.493-11.475-6.188-24.401-1.959-36.398c4.231-11.999,12.879-21.631,24.353-27.124c11.476-5.489,24.401-6.187,36.4-1.959
			c11.997,4.231,21.63,12.879,27.123,24.353C427.162,176.064,427.857,188.991,423.628,200.989z"/>
	</g>
</g>
</svg>